<?xml version="1.0" encoding="iso-8859-1"?>
<!-- Generator: Adobe Illustrator 19.0.0, SVG Export Plug-In . SVG Version: 6.00 Build 0)  -->
<svg version="1.1" id="Layer_1" xmlns="http://www.w3.org/2000/svg" xmlns:xlink="http://www.w3.org/1999/xlink" x="0px" y="0px"
   viewBox="0 0 512 512" style="enable-background:new 0 0 512 512;" xml:space="preserve">
<circle style="fill:#88C5CC;" cx="256" cy="256" r="256"/>
<path style="fill:#406A80;" d="M3.34,297.172C23.04,418.972,128.636,512,256,512c127.684,0,233.508-93.492,252.824-215.752
  C339.056,256.328,173.168,256.64,3.34,297.172z"/>
<path style="fill:#FFEAB3;" d="M505.968,311.188C463.984,301.408,418.092,296,370,296c-139.132,0-259.908,45.1-320.508,111.252
  C96.084,470.752,171.212,512,256,512C378.428,512,480.724,426.032,505.968,311.188z"/>
<g>

    <rect x="359.374" y="64.145" transform="matrix(0.7073 -0.7069 0.7069 0.7073 55.7022 282.8122)" style="fill:#FFD464;" width="19.996" height="19.992"/>

    <rect x="359.397" y="169.137" transform="matrix(0.7072 -0.707 0.707 0.7072 -18.4921 313.6138)" style="fill:#FFD464;" width="19.996" height="19.992"/>

    <rect x="306.885" y="116.625" transform="matrix(-0.7072 -0.707 0.707 -0.7072 451.4615 440.2104)" style="fill:#FFD464;" width="19.996" height="19.996"/>

    <rect x="411.876" y="116.639" transform="matrix(-0.7073 -0.7069 0.7069 -0.7073 630.7479 514.433)" style="fill:#FFD464;" width="19.996" height="19.996"/>
  <rect x="322.24" y="79.512" style="fill:#FFD464;" width="19.988" height="19.996"/>
  <rect x="396.48" y="153.744" style="fill:#FFD464;" width="19.996" height="19.996"/>
  <rect x="322.24" y="153.744" style="fill:#FFD464;" width="19.988" height="19.996"/>
  <rect x="396.48" y="79.512" style="fill:#FFD464;" width="19.996" height="19.996"/>
</g>
<circle style="fill:#FFE399;" cx="369.36" cy="126.624" r="57.488"/>
<circle style="fill:#FFD464;" cx="369.36" cy="126.624" r="49.988"/>
<path style="fill:#F2DEAA;" d="M72.792,385.7c-0.032,0.084-0.076,0.16-0.096,0.248c-0.104,0.304-0.2,0.616-0.296,0.928
  c-0.032,0.084-0.072,0.172-0.096,0.256c-0.108,0.312-0.204,0.632-0.3,0.952c-0.032,0.084-0.072,0.156-0.096,0.244
  c-0.104,0.308-0.2,0.616-0.292,0.928c-0.036,0.084-0.076,0.172-0.1,0.256c-0.108,0.316-0.204,0.636-0.3,0.952
  c-0.032,0.084-0.072,0.16-0.092,0.244c-0.108,0.308-0.2,0.62-0.296,0.932c-0.032,0.084-0.076,0.172-0.1,0.252
  c-0.104,0.32-0.204,0.632-0.3,0.952c-0.032,0.084-0.072,0.16-0.092,0.244c-0.108,0.312-0.2,0.624-0.296,0.932
  c-0.032,0.084-0.072,0.172-0.096,0.252c-0.108,0.32-0.208,0.64-0.3,0.952c-0.032,0.084-0.076,0.164-0.096,0.248
  c-0.112,0.324-0.212,0.652-0.312,0.984c-0.024,0.072-0.06,0.136-0.084,0.208c-0.108,0.316-0.204,0.632-0.3,0.952
  c-0.032,0.084-0.072,0.156-0.096,0.244c-0.104,0.308-0.2,0.62-0.292,0.932c-0.036,0.084-0.076,0.172-0.1,0.252
  c-0.108,0.316-0.204,0.636-0.3,0.952c-0.032,0.084-0.072,0.16-0.092,0.244c-0.108,0.312-0.204,0.62-0.296,0.932
  c-0.032,0.084-0.076,0.172-0.1,0.252c-0.104,0.32-0.204,0.632-0.296,0.952c-0.036,0.084-0.076,0.164-0.096,0.248
  c-0.108,0.308-0.2,0.62-0.296,0.932c-0.032,0.084-0.072,0.172-0.096,0.252c-0.108,0.316-0.208,0.636-0.3,0.948
  c-0.032,0.084-0.076,0.164-0.096,0.248c-0.104,0.308-0.2,0.62-0.296,0.932c-0.032,0.084-0.072,0.172-0.096,0.252
  c-0.108,0.316-0.204,0.632-0.3,0.952c-0.032,0.084-0.072,0.16-0.096,0.248c-0.104,0.304-0.2,0.616-0.292,0.928
  c-0.036,0.084-0.076,0.172-0.1,0.256c-0.116,0.328-0.216,0.664-0.316,1c-0.024,0.068-0.056,0.124-0.08,0.196
  c-0.108,0.304-0.2,0.616-0.296,0.928c-0.032,0.084-0.076,0.172-0.1,0.256c-0.104,0.316-0.204,0.632-0.3,0.952
  c-0.032,0.084-0.072,0.156-0.092,0.244c-0.108,0.308-0.2,0.62-0.296,0.928c-0.032,0.084-0.072,0.172-0.096,0.256
  c-0.108,0.316-0.208,0.636-0.3,0.952c-0.032,0.084-0.076,0.16-0.096,0.244c-0.104,0.308-0.2,0.62-0.296,0.932
  c-0.032,0.084-0.072,0.172-0.096,0.252c-0.108,0.32-0.204,0.632-0.3,0.952c-0.032,0.084-0.072,0.16-0.096,0.244
  c-0.104,0.312-0.2,0.624-0.292,0.932c-0.036,0.084-0.076,0.172-0.1,0.256c-0.108,0.316-0.204,0.636-0.3,0.948
  c-0.032,0.084-0.072,0.164-0.092,0.248c-0.108,0.308-0.204,0.62-0.296,0.932c-0.032,0.084-0.076,0.172-0.1,0.252
  c-0.104,0.316-0.204,0.632-0.296,0.952c-0.012,0.02-0.02,0.04-0.028,0.056c30.308,35.7,70.216,62.98,115.744,77.84
  c0.08-0.224,0.184-0.428,0.228-0.672c0.204-0.372,0.32-0.772,0.404-1.196c0.204-0.372,0.312-0.772,0.396-1.192
  c0.204-0.372,0.316-0.768,0.396-1.192c0.212-0.376,0.32-0.772,0.408-1.196c0.204-0.376,0.316-0.768,0.396-1.188
  c0.208-0.38,0.32-0.78,0.408-1.204c0.204-0.372,0.312-0.764,0.396-1.188c0.208-0.376,0.32-0.772,0.404-1.2
  c0.208-0.372,0.316-0.768,0.4-1.192c0.208-0.376,0.32-0.772,0.404-1.196c0.204-0.376,0.316-0.768,0.4-1.188
  c0.208-0.38,0.32-0.78,0.404-1.212c0.204-0.368,0.312-0.764,0.392-1.18c0.212-0.376,0.324-0.772,0.408-1.2
  c0.204-0.372,0.316-0.768,0.396-1.192c0.208-0.376,0.324-0.772,0.408-1.196c0.204-0.376,0.312-0.768,0.396-1.188
  c0.208-0.38,0.324-0.776,0.404-1.204c0.208-0.372,0.316-0.764,0.4-1.188c0.208-0.376,0.324-0.772,0.404-1.2
  c0.204-0.372,0.316-0.768,0.4-1.188c0.208-0.38,0.324-0.776,0.404-1.2c0.204-0.376,0.32-0.776,0.4-1.196
  c0.208-0.376,0.316-0.772,0.4-1.196c0.204-0.372,0.316-0.764,0.396-1.188c0.208-0.376,0.32-0.772,0.408-1.2
  c0.204-0.372,0.316-0.768,0.396-1.188c0.208-0.38,0.32-0.776,0.404-1.2c0.208-0.376,0.316-0.768,0.4-1.188
  c0.208-0.38,0.32-0.776,0.404-1.204c0.204-0.372,0.316-0.764,0.4-1.188c0.208-0.376,0.32-0.772,0.404-1.2
  c0.204-0.372,0.316-0.768,0.396-1.188c0.212-0.38,0.32-0.776,0.408-1.2c0.204-0.376,0.32-0.776,0.4-1.196
  c0.204-0.376,0.316-0.772,0.4-1.196c0.204-0.372,0.316-0.764,0.396-1.188c0.208-0.376,0.324-0.772,0.404-1.2
  c0.208-0.372,0.316-0.768,0.4-1.188c0.208-0.38,0.324-0.776,0.404-1.2c0.208-0.376,0.316-0.768,0.4-1.188
  c0.208-0.38,0.324-0.776,0.404-1.204c0.204-0.372,0.316-0.764,0.396-1.188c0.212-0.376,0.324-0.772,0.408-1.2
  c0.204-0.372,0.316-0.768,0.396-1.188c0.212-0.38,0.324-0.78,0.408-1.208c0.204-0.368,0.312-0.764,0.392-1.18
  c0.208-0.38,0.32-0.776,0.408-1.204c0.204-0.372,0.312-0.764,0.396-1.188c0.208-0.376,0.32-0.772,0.404-1.2
  c0.208-0.372,0.316-0.768,0.4-1.188c0.208-0.38,0.32-0.776,0.404-1.2c0.204-0.376,0.316-0.768,0.396-1.188
  c0.212-0.38,0.32-0.776,0.408-1.204c0.204-0.372,0.316-0.764,0.396-1.188c0.212-0.376,0.32-0.772,0.408-1.2
  c0.204-0.372,0.32-0.776,0.4-1.196c0.204-0.372,0.316-0.772,0.4-1.192c0.204-0.376,0.312-0.768,0.396-1.188
  c0.208-0.38,0.324-0.776,0.404-1.204c0.208-0.372,0.316-0.764,0.4-1.188c0.208-0.376,0.324-0.772,0.404-1.2
  c0.204-0.372,0.316-0.768,0.4-1.188c0.208-0.38,0.32-0.776,0.404-1.2c0.204-0.376,0.32-0.772,0.4-1.196
  c0.208-0.376,0.316-0.768,0.4-1.188c0.208-0.38,0.324-0.78,0.404-1.204c0.204-0.372,0.316-0.764,0.4-1.188
  c0.208-0.376,0.32-0.78,0.404-1.208c0.204-0.372,0.312-0.764,0.392-1.184c0.212-0.376,0.32-0.772,0.408-1.196
  c0.204-0.376,0.316-0.768,0.396-1.188c0.208-0.38,0.32-0.78,0.408-1.204c0.204-0.372,0.312-0.764,0.396-1.188
  c0.208-0.376,0.32-0.772,0.404-1.2c0.208-0.372,0.316-0.768,0.4-1.192c0.208-0.376,0.32-0.772,0.404-1.196
  c0.204-0.376,0.316-0.768,0.4-1.188c0.208-0.38,0.316-0.78,0.404-1.204c0.204-0.372,0.32-0.772,0.4-1.196
  c0.208-0.372,0.316-0.772,0.4-1.192c0.204-0.372,0.316-0.768,0.396-1.192c0.208-0.376,0.324-0.772,0.408-1.196
  c0.204-0.376,0.316-0.768,0.396-1.188c0.208-0.38,0.324-0.776,0.404-1.204c0.208-0.372,0.316-0.764,0.4-1.188
  c0.208-0.376,0.324-0.772,0.404-1.2c0.204-0.372,0.316-0.768,0.4-1.188c0.208-0.38,0.324-0.776,0.404-1.2
  c0.204-0.376,0.316-0.768,0.396-1.188c0.212-0.38,0.324-0.78,0.408-1.212c0.204-0.368,0.312-0.764,0.392-1.18
  c0.208-0.376,0.32-0.772,0.408-1.2c0.204-0.372,0.316-0.768,0.396-1.188c0.208-0.38,0.32-0.776,0.404-1.2
  c0.208-0.376,0.316-0.768,0.4-1.188c0.532-0.96,0.696-2.108,0.308-3.232L212.8,373l0.416-0.144
  c-0.108-0.316-0.256-0.604-0.376-0.916l0.768-0.268c-0.104-0.316-0.256-0.604-0.376-0.924l0.772-0.264
  c-0.108-0.316-0.256-0.608-0.38-0.92l0.772-0.264c-0.108-0.32-0.26-0.608-0.376-0.924l0.764-0.268
  c-0.104-0.312-0.256-0.604-0.376-0.916l0.772-0.268c-0.108-0.312-0.26-0.604-0.38-0.92l0.772-0.264
  c-0.108-0.32-0.26-0.608-0.376-0.92l0.768-0.268c-0.104-0.32-0.256-0.604-0.376-0.924l0.772-0.264
  c-0.108-0.316-0.26-0.608-0.376-0.92l0.768-0.264c-0.104-0.316-0.256-0.608-0.376-0.92l0.772-0.268
  c-0.108-0.316-0.26-0.608-0.38-0.92l0.772-0.268c-0.108-0.32-0.26-0.604-0.376-0.92l0.768-0.264c-0.104-0.32-0.256-0.608-0.376-0.92
  l0.772-0.264c-0.108-0.32-0.26-0.608-0.38-0.924l0.772-0.268c-0.108-0.312-0.256-0.608-0.376-0.92l0.764-0.264
  c-0.104-0.32-0.256-0.608-0.376-0.92l0.772-0.268c-0.108-0.316-0.256-0.608-0.376-0.916l0.768-0.268
  c-0.104-0.316-0.256-0.608-0.376-0.924l0.772-0.264c-0.108-0.316-0.256-0.608-0.38-0.92l0.772-0.264
  c-0.108-0.32-0.26-0.608-0.376-0.924l0.768-0.268c-0.104-0.312-0.252-0.608-0.376-0.916l0.772-0.268
  c-0.108-0.312-0.26-0.608-0.38-0.92l0.772-0.268c-0.108-0.316-0.256-0.604-0.376-0.916l0.768-0.268
  c-0.104-0.32-0.256-0.604-0.376-0.924l0.772-0.264c-0.108-0.316-0.256-0.608-0.376-0.92l0.768-0.264
  c-0.108-0.316-0.256-0.608-0.376-0.924l0.772-0.268c-0.108-0.312-0.256-0.604-0.38-0.92l0.768-0.264
  c-0.108-0.32-0.26-0.604-0.376-0.92l0.768-0.268c-0.104-0.316-0.256-0.604-0.376-0.916l0.772-0.268
  c-0.108-0.316-0.26-0.604-0.38-0.924l0.772-0.264c-0.108-0.316-0.26-0.608-0.376-0.92l0.768-0.264
  c-0.104-0.32-0.256-0.608-0.376-0.92l0.772-0.272c-0.108-0.312-0.26-0.604-0.38-0.916l0.772-0.268
  c-0.108-0.312-0.256-0.604-0.376-0.92l0.772-0.264c-0.108-0.32-0.26-0.608-0.38-0.92l0.772-0.268
  c-0.108-0.316-0.26-0.604-0.376-0.92l0.768-0.268c-0.104-0.316-0.256-0.608-0.376-0.92l0.772-0.264
  c-0.108-0.32-0.26-0.608-0.38-0.92l0.768-0.268c-0.108-0.316-0.256-0.608-0.376-0.916l0.768-0.272
  c-0.104-0.316-0.256-0.604-0.376-0.92l0.772-0.264c-0.108-0.32-0.256-0.608-0.38-0.92l0.772-0.264
  c-0.108-0.32-0.256-0.608-0.376-0.924l0.768-0.268c-0.104-0.312-0.252-0.608-0.376-0.916l0.772-0.268
  c-0.108-0.32-0.26-0.608-0.376-0.92l0.768-0.268c-0.104-0.316-0.252-0.604-0.376-0.916l0.772-0.268
  c-0.108-0.316-0.26-0.608-0.38-0.924l0.772-0.264c-0.108-0.316-0.256-0.608-0.376-0.92l0.768-0.264
  c-0.104-0.32-0.256-0.608-0.376-0.924l0.772-0.268c-0.108-0.312-0.256-0.604-0.38-0.92l0.768-0.264
  c-0.108-0.312-0.256-0.608-0.376-0.92l0.768-0.268c-0.104-0.316-0.256-0.604-0.376-0.916l0.772-0.268
  c-0.084-0.232-0.18-0.448-0.268-0.668c-64.944,15.264-120.424,41.08-160.064,73.72C72.912,385.328,72.852,385.516,72.792,385.7z"/>
<path style="fill:#263740;" d="M212.84,386.028c-2.084,0.732-4.364-0.376-5.088-2.464L149.98,217.312
  c-0.724-2.084,0.38-4.364,2.468-5.088c2.084-0.728,4.364,0.376,5.084,2.464L215.3,380.94
  C216.032,383.024,214.928,385.3,212.84,386.028z"/>
<path style="fill:#FFEAB3;" d="M112.008,315.2c-13.052-37.564,6.816-78.588,44.38-91.64c37.568-13.056,78.588,6.816,91.644,44.376
  L112.008,315.2z"/>
<g>
  <path style="fill:#CC584C;" d="M152.304,225.212c-34.868,14.536-52.864,53.828-40.296,89.988l22.82-7.924
    C125.092,275.192,132.652,242.888,152.304,225.212z"/>
  <path style="fill:#CC584C;" d="M160.612,222.324c36.368-10.22,74.852,9.448,87.416,45.612l-22.824,7.924
    C212.956,244.664,186.992,224.004,160.612,222.324z"/>
  <path style="fill:#CC584C;" d="M156.388,223.56c-8.712,11.492-1.824,55.68,4.748,74.576c3.772-1.312,18.892-6.568,18.892-6.568
    s15.112-5.252,18.892-6.568C192.348,266.108,170.348,227.176,156.388,223.56z"/>
</g>
<g>
</g>
<g>
</g>
<g>
</g>
<g>
</g>
<g>
</g>
<g>
</g>
<g>
</g>
<g>
</g>
<g>
</g>
<g>
</g>
<g>
</g>
<g>
</g>
<g>
</g>
<g>
</g>
<g>
</g>
</svg>
